  0
SECTION
  2
HEADER
  9
$ACADVER
  1
AC1015
  9
$ACADMAINTVER
 70
               6
  9
$DWGCODEPAGE
  3
ANSI_1252
  9
$INSBASE
 10
0.0
 20
0.0
 30
0.0
  9
$EXTMIN
 10
-155.72074824721363
 20
-132.71899253439423
 30
-2.5439999999999996
  9
$EXTMAX
 10
144.26645080245106
 20
167.26820651527044
 30
2.5439999999999996
  9
$LIMMIN
 10
0.0
 20
0.0
  9
$LIMMAX
 10
0.0
 20
0.0
  9
$ORTHOMODE
 70
               0
  9
$REGENMODE
 70
               1
  9
$FILLMODE
 70
               1
  9
$QTEXTMODE
 70
               0
  9
$MIRRTEXT
 70
               1
  9
$LTSCALE
 40
9.5999999999999996
  9
$ATTMODE
 70
               1
  9
$TEXTSIZE
 40
0.2
  9
$TRACEWID
 40
1.0
  9
$TEXTSTYLE
  7
Standard
  9
$CLAYER
  8
lines
  9
$CELTYPE
  6
Continuous
  9
$CECOLOR
 62
             256
  9
$CELTSCALE
 40
1.0
  9
$DISPSILH
 70
               0
  9
$DIMSCALE
 40
1.0
  9
$DIMASZ
 40
0.18
  9
$DIMEXO
 40
0.0625
  9
$DIMDLI
 40
0.38
  9
$DIMRND
 40
0.0
  9
$DIMDLE
 40
0.0
  9
$DIMEXE
 40
0.18
  9
$DIMTP
 40
0.0
  9
$DIMTM
 40
0.0
  9
$DIMTXT
 40
0.18
  9
$DIMCEN
 40
0.09
  9
$DIMTSZ
 40
0.0
  9
$DIMTOL
 70
               0
  9
$DIMLIM
 70
               0
  9
$DIMTIH
 70
               1
  9
$DIMTOH
 70
               1
  9
$DIMSE1
 70
               0
  9
$DIMSE2
 70
               0
  9
$DIMTAD
 70
               0
  9
$DIMZIN
 70
               0
  9
$DIMBLK
  1

  9
$DIMASO
 70
               1
  9
$DIMSHO
 70
               1
  9
$DIMPOST
  1

  9
$DIMAPOST
  1

  9
$DIMALT
 70
               0
  9
$DIMALTD
 70
               2
  9
$DIMALTF
 40
25.399999999999999
  9
$DIMLFAC
 40
1.0
  9
$DIMTOFL
 70
               0
  9
$DIMTVP
 40
0.0
  9
$DIMTIX
 70
               0
  9
$DIMSOXD
 70
               0
  9
$DIMSAH
 70
               0
  9
$DIMBLK1
  1

  9
$DIMBLK2
  1

  9
$DIMSTYLE
  2
Standard
  9
$DIMCLRD
 70
               0
  9
$DIMCLRE
 70
               0
  9
$DIMCLRT
 70
               0
  9
$DIMTFAC
 40
1.0
  9
$DIMGAP
 40
0.09
  9
$DIMJUST
 70
               0
  9
$DIMSD1
 70
               0
  9
$DIMSD2
 70
               0
  9
$DIMTOLJ
 70
               1
  9
$DIMTZIN
 70
               0
  9
$DIMALTZ
 70
               0
  9
$DIMALTTZ
 70
               0
  9
$DIMUPT
 70
               0
  9
$DIMDEC
 70
               4
  9
$DIMTDEC
 70
               4
  9
$DIMALTU
 70
               2
  9
$DIMALTTD
 70
               2
  9
$DIMTXSTY
  7
Standard
  9
$DIMAUNIT
 70
               0
  9
$DIMADEC
 70
               0
  9
$DIMALTRND
 40
0.0
  9
$DIMAZIN
 70
               0
  9
$DIMDSEP
 70
               0
  9
$DIMATFIT
 70
               3
  9
$DIMFRAC
 70
               0
  9
$DIMLDRBLK
  1

  9
$DIMLUNIT
 70
               2
  9
$DIMLWD
 70
               0
  9
$DIMLWE
 70
               0
  9
$DIMTMOVE
 70
               0
  9
$LUNITS
 70
               4
  9
$LUPREC
 70
               4
  9
$SKETCHINC
 40
0.1
  9
$FILLETRAD
 40
0.0
  9
$AUNITS
 70
               0
  9
$AUPREC
 70
               0
  9
$MENU
  1
acad
  9
$ELEVATION
 40
0.0
  9
$PELEVATION
 40
0.0
  9
$THICKNESS
 40
0.0
  9
$LIMCHECK
 70
               0
  9
$CHAMFERA
 40
0.0
  9
$CHAMFERB
 40
0.0
  9
$CHAMFERC
 40
0.0
  9
$CHAMFERD
 40
0.0
  9
$SKPOLY
 70
               0
  9
$TDCREATE
 40
2455613.784409722
  9
$TDUCREATE
 40
0.000000000
  9
$TDUPDATE
 40
2455613.784409722
  9
$TDUUPDATE
 40
0.000000000
  9
$TDINDWG
 40
0.0000000000
  9
$TDUSRTIMER
 40
0.0000000000
  9
$USRTIMER
 70
               1
  9
$ANGBASE
 50
0.0
  9
$ANGDIR
 70
               0
  9
$PDMODE
 70
               1
  9
$PDSIZE
 40
-2.0
  9
$PLINEWID
 40
0.0
  9
$SPLFRAME
 70
               0
  9
$SPLINETYPE
 70
               6
  9
$SPLINESEGS
 70
               8
  9
$HANDSEED
  5
DC
  9
$SURFTAB1
 70
               6
  9
$SURFTAB2
 70
               6
  9
$SURFTYPE
 70
               6
  9
$SURFU
 70
               6
  9
$SURFV
 70
               6
  9
$UCSBASE
  2

  9
$UCSNAME
  2

  9
$UCSORG
 10
0.0
 20
0.0
 30
0.0
  9
$UCSXDIR
 10
1.0
 20
0.0
 30
0.0
  9
$UCSYDIR
 10
0.0
 20
1.0
 30
0.0
  9
$UCSORTHOREF
  2

  9
$UCSORTHOVIEW
 70
               0
  9
$UCSORGTOP
 10
0.0
 20
0.0
 30
0.0
  9
$UCSORGBOTTOM
 10
0.0
 20
0.0
 30
0.0
  9
$UCSORGLEFT
 10
0.0
 20
0.0
 30
0.0
  9
$UCSORGRIGHT
 10
0.0
 20
0.0
 30
0.0
  9
$UCSORGFRONT
 10
0.0
 20
0.0
 30
0.0
  9
$UCSORGBACK
 10
0.0
 20
0.0
 30
0.0
  9
$PUCSBASE
  2

  9
$PUCSNAME
  2

  9
$PUCSORG
 10
0.0
 20
0.0
 30
0.0
  9
$PUCSXDIR
 10
1.0
 20
0.0
 30
0.0
  9
$PUCSYDIR
 10
0.0
 20
1.0
 30
0.0
  9
$PUCSORTHOREF
  2

  9
$PUCSORTHOVIEW
 70
               0
  9
$PUCSORGTOP
 10
0.0
 20
0.0
 30
0.0
  9
$PUCSORGBOTTOM
 10
0.0
 20
0.0
 30
0.0
  9
$PUCSORGLEFT
 10
0.0
 20
0.0
 30
0.0
  9
$PUCSORGRIGHT
 10
0.0
 20
0.0
 30
0.0
  9
$PUCSORGFRONT
 10
0.0
 20
0.0
 30
0.0
  9
$PUCSORGBACK
 10
0.0
 20
0.0
 30
0.0
  9
$USERI1
 70
               0
  9
$USERI2
 70
               0
  9
$USERI3
 70
               0
  9
$USERI4
 70
               0
  9
$USERI5
 70
               0
  9
$USERR1
 40
0.0
  9
$USERR2
 40
0.0
  9
$USERR3
 40
0.0
  9
$USERR4
 40
0.0
  9
$USERR5
 40
0.0
  9
$WORLDVIEW
 70
               1
  9
$SHADEDGE
 70
               3
  9
$SHADEDIF
 70
              70
  9
$TILEMODE
 70
               1
  9
$MAXACTVP
 70
              64
  9
$PINSBASE
 10
0.0
 20
0.0
 30
0.0
  9
$PLIMCHECK
 70
               0
  9
$PEXTMIN
 10
1.0000000000000000E+20
 20
1.0000000000000000E+20
 30
1.0000000000000000E+20
  9
$PEXTMAX
 10
-1.0000000000000000E+20
 20
-1.0000000000000000E+20
 30
-1.0000000000000000E+20
  9
$PLIMMIN
 10
0.0
 20
0.0
  9
$PLIMMAX
 10
12.0
 20
9.0
  9
$UNITMODE
 70
               0
  9
$VISRETAIN
 70
               0
  9
$PLINEGEN
 70
               1
  9
$PSLTSCALE
 70
               0
  9
$TREEDEPTH
 70
            3020
  9
$CMLSTYLE
  2
Standard
  9
$CMLJUST
 70
               0
  9
$CMLSCALE
 40
1.0
  9
$PROXYGRAPHICS
 70
               0
  9
$MEASUREMENT
 70
               0
  9
$CELWEIGHT
370
               0
  9
$ENDCAPS
280
               0
  9
$JOINSTYLE
280
               0
  9
$LWDISPLAY
290
               1
  9
$INSUNITS
 70
               1
  9
$HYPERLINKBASE
  1

  9
$STYLESHEET
  1

  9
$XEDIT
290
               1
  9
$CEPSNTYPE
380
               0
  9
$PSTYLEMODE
290
               1
  9
$FINGERPRINTGUID
  2

  9
$VERSIONGUID
  2

  9
$EXTNAMES
290
               1
  9
$PSVPSCALE
 40
0.0
  0
ENDSEC
  0
SECTION
  2
CLASSES
  0
CLASS
  1
LWPOLYLINE
  2
AcDbPolyline
  3
AutoCAD 2000
 90
        0
280
               0
281
               1
  0
CLASS
  1
IMAGE
  2
AcDbRasterImage
  3
ISM
 90
      127
280
               0
281
               1
  0
CLASS
  1
OLE2FRAME
  2
AcDbOle2Frame
  3
AutoCAD 2000
 90
        0
280
               0
281
               1
  0
CLASS
  1
HATCH
  2
AcDbHatch
  3
AutoCAD 2000
 90
        0
280
               0
281
               1
  0
CLASS
  1
DICTIONARYVAR
  2
AcDbDictionaryVar
  3
AutoCAD 2000
 90
        0
280
               0
281
               0
  0
CLASS
  1
RASTERVARIABLES
  2
AcDbRasterVariables
  3
ISM
 90
        0
280
               0
281
               0
  0
CLASS
  1
IMAGEDEF
  2
AcDbRasterImageDef
  3
ISM
 90
        0
280
               0
281
               0
  0
CLASS
  1
IMAGEDEF_REACTOR
  2
AcDbRasterImageDefReactor
  3
ISM
 90
        1
280
               0
281
               0
  0
CLASS
  1
IDBUFFER
  2
AcDbIdBuffer
  3
AutoCAD 2000
 90
        0
280
               0
281
               0
  0
CLASS
  1
SPATIAL_FILTER
  2
AcDbSpatialFilter
  3
AutoCAD 2000
 90
        0
280
               0
281
               0
  0
CLASS
  1
XRECORD
  2
AcDbXrecord
  3
AutoCAD 2000
 90
        0
280
               0
281
               0
  0
CLASS
  1
SORTENTSTABLE
  2
AcDbSortentsTable
  3
AutoCAD 2000
 90
        0
280
               0
281
               0
  0
CLASS
  1
LAYER_INDEX
  2
AcDbLayerIndex
  3
AutoCAD 2000
 90
        0
280
               0
281
               0
  0
CLASS
  1
SPATIAL_INDEX
  2
AcDbSpatialIndex
  3
AutoCAD 2000
 90
        0
280
               0
281
               0
  0
CLASS
  1
OBJECT_PTR
  2
CAseDLPNTableRecord
  3
"ASE-LPNTableRecord"
 90
        1
280
               0
281
               0
  0
CLASS
  1
LAYOUT
  2
AcDbLayout
  3
AutoCAD 2000
 90
        0
280
               0
281
               0
  0
CLASS
  1
PLOTSETTINGS
  2
AcDbPlotSettings
  3
AutoCAD 2000
 90
        0
280
               0
281
               0
  0
CLASS
  1
ACDBDICTIONARYWDFLT
  2
AcDbDictionaryWithDefault
  3
AutoCAD 2000
 90
        0
280
               0
281
               0
  0
CLASS
  1
ACDBPLACEHOLDER
  2
AcDbPlaceHolder
  3
AutoCAD 2000
 90
        0
280
               0
281
               0
  0
CLASS
  1
VBA_PROJECT
  2
AcDbVbaProject
  3
acadvba
 90
        0
280
               0
281
               0
  0
CLASS
  1
WIPEOUT
  2
AcDbWipeout
  3
WipeOut|AutoCAD Express Tool|expresstools@autodesk.com
 90
      127
280
               0
281
               1
  0
CLASS
  1
WIPEOUTVARIABLES
  2
AcDbWipeoutVariables
  3
WipeOut|AutoCAD Express Tool|expresstools@autodesk.com
 90
        0
280
               0
281
               0
  0
CLASS
  1
RTEXT
  2
RText
  3
RText|AutoCAD Express Tool|expresstools@autodesk.com
 90
        0
280
               0
281
               1
  0
CLASS
  1
ARCALIGNEDTEXT
  2
AcDbArcAlignedText
  3
ATEXT|AutoCAD Express Tool|expresstools@autodesk.com
 90
        0
280
               0
281
               1
  0
ENDSEC
  0
SECTION
  2
TABLES
  0
TABLE
  2
VPORT
  5
7
100
AcDbSymbolTable
 70
               1
  0
VPORT
  5
15
100
AcDbSymbolTableRecord
100
AcDbViewportTableRecord
  2
*ACTIVE
 70
               0
 10
0.0
 20
0.0
 11
1.0
 21
1.0
 12
-5.7271487223812869
 22
17.274606990438116
 13
0.0
 23
0.0
 14
1.0
 24
1.0
 15
0.0
 25
0.0
 16
0.0
 26
0.0
 36
1.0
 17
0.0
 27
0.0
 37
0.0
 40
299.9871990496647
 41
0.688564
 42
50.0
 43
0.0
 44
0.0
 50
0.0
 51
0.0
 71
               0
 72
            2000
 73
               1
 74
               1
 75
               0
 76
               0
 77
               0
 78
               0
281
               0
 65
               0
110
0.0
120
0.0
130
0.0
111
1.0
121
0.0
131
0.0
112
0.0
122
1.0
132
0.0
345
0
346
0
 79
               0
146
0.0
  0
ENDTAB
  0
TABLE
  2
LTYPE
  5
4
100
AcDbSymbolTable
 70
              13
  0
LTYPE
  5
11
100
AcDbSymbolTableRecord
100
AcDbLinetypeTableRecord
  2
ByBlock
 70
              64
  3

 72
              65
 73
               0
 40
0.0
  0
LTYPE
  5
12
100
AcDbSymbolTableRecord
100
AcDbLinetypeTableRecord
  2
ByLayer
 70
              64
  3

 72
              65
 73
               0
 40
0.0
  0
LTYPE
  5
13
100
AcDbSymbolTableRecord
100
AcDbLinetypeTableRecord
  2
Continuous
 70
              64
  3
Solid line
 72
              65
 73
               0
 40
0.0
  0
LTYPE
  5
35
100
AcDbSymbolTableRecord
100
AcDbLinetypeTableRecord
  2
STYLE_01
 70
               0
  3

 72
              65
 73
               2
 40
0.41664
 49
0.20828
 74
               0
 49
-0.20836
 74
               0
  0
LTYPE
  5
36
100
AcDbSymbolTableRecord
100
AcDbLinetypeTableRecord
  2
STYLE_02
 70
               0
  3

 72
              65
 73
               2
 40
0.6944250000000001
 49
0.48607
 74
               0
 49
-0.2083550000000001
 74
               0
  0
LTYPE
  5
37
100
AcDbSymbolTableRecord
100
AcDbLinetypeTableRecord
  2
STYLE_03
 70
               0
  3

 72
              65
 73
               2
 40
1.25
 49
1.0416400000000001
 74
               0
 49
-0.2083599999999999
 74
               0
  0
LTYPE
  5
38
100
AcDbSymbolTableRecord
100
AcDbLinetypeTableRecord
  2
STYLE_04
 70
               0
  3

 72
              65
 73
               2
 40
1.5277099999999999
 49
1.3194249999999998
 74
               0
 49
-0.208285
 74
               0
  0
LTYPE
  5
39
100
AcDbSymbolTableRecord
100
AcDbLinetypeTableRecord
  2
STYLE_05
 70
               0
  3

 72
              65
 73
               2
 40
0.20828
 49
0.069425
 74
               0
 49
-0.138855
 74
               0
  0
LTYPE
  5
3A
100
AcDbSymbolTableRecord
100
AcDbLinetypeTableRecord
  2
STYLE_06
 70
               0
  3

 72
              65
 73
               4
 40
1.0416400000000001
 49
0.625
 74
               0
 49
-0.20828
 74
               0
 49
0.06943
 74
               0
 49
-0.13893
 74
               0
  0
LTYPE
  5
3B
100
AcDbSymbolTableRecord
100
AcDbLinetypeTableRecord
  2
STYLE_07
 70
               0
  3

 72
              65
 73
               6
 40
1.875
 49
0.625
 74
               0
 49
-0.20828
 74
               0
 49
0.6250000000000001
 74
               0
 49
-0.2083599999999999
 74
               0
 49
0.06943
 74
               0
 49
-0.1389299999999999
 74
               0
  0
LTYPE
  5
3C
100
AcDbSymbolTableRecord
100
AcDbLinetypeTableRecord
  2
STYLE_08
 70
               0
  3

 72
              65
 73
               6
 40
1.25
 49
0.625
 74
               0
 49
-0.20828
 74
               0
 49
0.06943
 74
               0
 49
-0.13893
 74
               0
 49
0.0694299999999999
 74
               0
 49
-0.13893
 74
               0
  0
LTYPE
  5
3D
100
AcDbSymbolTableRecord
100
AcDbLinetypeTableRecord
  2
STYLE_09
 70
               0
  3

 72
              65
 73
               4
 40
5.0
 49
3.75
 74
               0
 49
-0.2777849999999998
 74
               0
 49
0.6944300000000003
 74
               0
 49
-0.2777849999999998
 74
               0
  0
LTYPE
  5
3E
100
AcDbSymbolTableRecord
100
AcDbLinetypeTableRecord
  2
STYLE_10
 70
               0
  3

 72
              65
 73
               6
 40
5.9375
 49
3.75
 74
               0
 49
-0.2777849999999998
 74
               0
 49
0.6944300000000003
 74
               0
 49
-0.2777849999999998
 74
               0
 49
0.625
 74
               0
 49
-0.3125
 74
               0
  0
ENDTAB
  0
TABLE
  2
LAYER
  5
2
100
AcDbSymbolTable
 70
               4
  0
LAYER
  5
14
100
AcDbSymbolTableRecord
100
AcDbLayerTableRecord
  2
0
 70
               0
 62
               7
  6
Continuous
290
               1
370
              -3
390
1D
  0
LAYER
  5
3F
100
AcDbSymbolTableRecord
100
AcDbLayerTableRecord
  2
None
 70
               1
 62
               7
  6
Continuous
290
               1
370
               5
390
1D
  0
LAYER
  5
40
100
AcDbSymbolTableRecord
100
AcDbLayerTableRecord
  2
Dimension
 70
               0
 62
               7
  6
Continuous
290
               1
370
               5
390
1D
  0
LAYER
  5
41
100
AcDbSymbolTableRecord
100
AcDbLayerTableRecord
  2
lines
 70
               0
 62
               7
  6
Continuous
290
               1
370
               5
390
1D
  0
ENDTAB
  0
TABLE
  2
STYLE
  5
3
100
AcDbSymbolTable
 70
               2
  0
STYLE
  5
17
100
AcDbSymbolTableRecord
100
AcDbTextStyleTableRecord
  2
Standard
 70
               0
 40
0.0
 41
1.0
 50
0.0
 71
               0
 42
0.0
  3
txt
  4

  0
STYLE
  5
34
100
AcDbSymbolTableRecord
100
AcDbTextStyleTableRecord
  2
MD11 DU
 70
               0
 40
0.0
 41
1.0
 50
0.0
 71
               0
 42
0.0
  3
MD11 DU
  4

1001
ACAD
1000
MD11 DU
1071
        0
  0
ENDTAB
  0
TABLE
  2
VIEW
  5
5
100
AcDbSymbolTable
 70
               0
  0
ENDTAB
  0
TABLE
  2
UCS
  5
6
100
AcDbSymbolTable
 70
               0
  0
ENDTAB
  0
TABLE
  2
APPID
  5
8
100
AcDbSymbolTable
 70
               1
  0
APPID
  5
16
100
AcDbSymbolTableRecord
100
AcDbRegAppTableRecord
  2
ACAD
 70
               0
  0
ENDTAB
  0
TABLE
  2
DIMSTYLE
  5
9
100
AcDbSymbolTable
 70
               1
100
AcDbDimStyleTable
 71
               0
  0
DIMSTYLE
105
18
100
AcDbSymbolTableRecord
100
AcDbDimStyleTableRecord
  2
Standard
 70
               0
  3

  4

 40
1.0
 41
0.18
 42
0.0625
 43
0.38
 44
0.18
 45
0.0
 46
0.0
 47
0.0
 48
0.0
 71
               0
 72
               0
 73
               1
 74
               1
 75
               0
 76
               0
 77
               0
 78
               0
 79
               0
140
0.18
141
0.09
142
0.0
143
25.399999999999999
144
1.0
145
0.0
146
1.0
147
0.09
148
0.0
170
               0
171
               2
172
               0
173
               0
174
               0
175
               0
176
               0
177
               0
178
               0
179
               0
271
               4
272
               4
273
               2
274
               2
275
               0
276
               0
277
               2
278
              46
279
               0
280
               0
281
               0
282
               0
283
               1
284
               0
285
               0
286
               0
288
               0
289
               3
340
17
341
0
342
0
343
0
344
0
371
              -2
372
              -2
  0
ENDTAB
  0
TABLE
  2
BLOCK_RECORD
  5
1
100
AcDbSymbolTable
 70
              16
  0
BLOCK_RECORD
  5
A
100
AcDbSymbolTableRecord
100
AcDbBlockTableRecord
  2
*MODEL_SPACE
340
20
  0
BLOCK_RECORD
  5
B
100
AcDbSymbolTableRecord
100
AcDbBlockTableRecord
  2
*PAPER_SPACE
340
21
  0
BLOCK_RECORD
  5
24
100
AcDbSymbolTableRecord
100
AcDbBlockTableRecord
  2
Group
340
0
102
{BLKREFS
331
CC
102
}
  0
BLOCK_RECORD
  5
25
100
AcDbSymbolTableRecord
100
AcDbBlockTableRecord
  2
Group-1
340
0
102
{BLKREFS
331
CD
102
}
  0
BLOCK_RECORD
  5
26
100
AcDbSymbolTableRecord
100
AcDbBlockTableRecord
  2
Group-2
340
0
102
{BLKREFS
331
CE
102
}
  0
BLOCK_RECORD
  5
27
100
AcDbSymbolTableRecord
100
AcDbBlockTableRecord
  2
Group-3
340
0
102
{BLKREFS
331
CF
102
}
  0
BLOCK_RECORD
  5
28
100
AcDbSymbolTableRecord
100
AcDbBlockTableRecord
  2
Group-4
340
0
102
{BLKREFS
331
D0
102
}
  0
BLOCK_RECORD
  5
29
100
AcDbSymbolTableRecord
100
AcDbBlockTableRecord
  2
Group-5
340
0
102
{BLKREFS
331
D1
102
}
  0
BLOCK_RECORD
  5
2A
100
AcDbSymbolTableRecord
100
AcDbBlockTableRecord
  2
Group-6
340
0
102
{BLKREFS
331
D2
102
}
  0
BLOCK_RECORD
  5
2B
100
AcDbSymbolTableRecord
100
AcDbBlockTableRecord
  2
Group-7
340
0
102
{BLKREFS
331
D3
102
}
  0
BLOCK_RECORD
  5
2C
100
AcDbSymbolTableRecord
100
AcDbBlockTableRecord
  2
Group-8
340
0
102
{BLKREFS
331
D4
102
}
  0
BLOCK_RECORD
  5
2D
100
AcDbSymbolTableRecord
100
AcDbBlockTableRecord
  2
Group-9
340
0
102
{BLKREFS
331
D5
102
}
  0
BLOCK_RECORD
  5
2E
100
AcDbSymbolTableRecord
100
AcDbBlockTableRecord
  2
Group-10
340
0
102
{BLKREFS
331
D6
102
}
  0
BLOCK_RECORD
  5
2F
100
AcDbSymbolTableRecord
100
AcDbBlockTableRecord
  2
Group-11
340
0
102
{BLKREFS
331
D7
102
}
  0
BLOCK_RECORD
  5
30
100
AcDbSymbolTableRecord
100
AcDbBlockTableRecord
  2
Group-12
340
0
102
{BLKREFS
331
D8
102
}
  0
BLOCK_RECORD
  5
31
100
AcDbSymbolTableRecord
100
AcDbBlockTableRecord
  2
Group-13
340
0
102
{BLKREFS
331
D9
102
}
  0
BLOCK_RECORD
  5
32
100
AcDbSymbolTableRecord
100
AcDbBlockTableRecord
  2
Group-14
340
0
102
{BLKREFS
331
DA
102
}
  0
BLOCK_RECORD
  5
33
100
AcDbSymbolTableRecord
100
AcDbBlockTableRecord
  2
Group-15
340
0
102
{BLKREFS
331
DB
102
}
  0
ENDTAB
  0
ENDSEC
  0
SECTION
  2
BLOCKS
  0
BLOCK
  5
D
100
AcDbEntity
  8
0
390
0
100
AcDbBlockBegin
  2
*MODEL_SPACE
 70
               0
 10
0.0
 20
0.0
 30
0.0
  3
*MODEL_SPACE
  1

  0
ENDBLK
  5
E
100
AcDbEntity
  8
0
390
0
100
AcDbBlockEnd
  0
BLOCK
  5
F
100
AcDbEntity
 67
               1
  8
0
390
0
100
AcDbBlockBegin
  2
*PAPER_SPACE
 70
               0
 10
0.0
 20
0.0
 30
0.0
  3
*PAPER_SPACE
  1

  0
ENDBLK
  5
10
100
AcDbEntity
 67
               1
  8
0
390
0
100
AcDbBlockEnd
  0
BLOCK
  5
42
100
AcDbEntity
  8
lines
390
0
100
AcDbBlockBegin
  2
Group
 70
               0
 10
0.0
 20
0.0
 30
0.0
  3
Group
  1

  0
LINE
  5
43
100
AcDbEntity
  8
lines
370
               5
390
0
  6
Continuous
 62
               7
100
AcDbLine
 10
52.273758118937451
 20
6.2313717840238594
 30
0.0
 11
53.523758118934907
 21
8.3964352934805149
 31
0.0
  0
LINE
  5
44
100
AcDbEntity
  8
lines
370
               5
390
0
  6
Continuous
 62
               7
100
AcDbLine
 10
54.773758118932371
 20
6.2313717840238594
 30
0.0
 11
53.523758118934907
 21
8.3964352934805149
 31
0.0
  0
LINE
  5
45
100
AcDbEntity
  8
lines
370
               5
390
0
  6
Continuous
 62
               7
100
AcDbLine
 10
54.773758118932371
 20
6.2313717840238594
 30
0.0
 11
52.273758118937451
 21
6.2313717840238594
 31
0.0
  0
ENDBLK
  5
46
100
AcDbEntity
  8
lines
390
0
100
AcDbBlockEnd
  0
BLOCK
  5
47
100
AcDbEntity
  8
lines
390
0
100
AcDbBlockBegin
  2
Group-1
 70
               0
 10
0.0
 20
0.0
 30
0.0
  3
Group-1
  1

  0
LINE
  5
48
100
AcDbEntity
  8
lines
370
               5
390
0
  6
Continuous
 62
               7
100
AcDbLine
 10
62.375000000002537
 20
-36.375
 30
0.0
 11
63.624999999999993
 21
-34.209936490543342
 31
0.0
  0
LINE
  5
49
100
AcDbEntity
  8
lines
370
               5
390
0
  6
Continuous
 62
               7
100
AcDbLine
 10
64.874999999997456
 20
-36.375
 30
0.0
 11
63.624999999999993
 21
-34.209936490543342
 31
0.0
  0
LINE
  5
4A
100
AcDbEntity
  8
lines
370
               5
390
0
  6
Continuous
 62
               7
100
AcDbLine
 10
64.874999999997456
 20
-36.375
 30
0.0
 11
62.375000000002537
 21
-36.375
 31
0.0
  0
ENDBLK
  5
4B
100
AcDbEntity
  8
lines
390
0
100
AcDbBlockEnd
  0
BLOCK
  5
4C
100
AcDbEntity
  8
lines
390
0
100
AcDbBlockBegin
  2
Group-2
 70
               0
 10
0.0
 20
0.0
 30
0.0
  3
Group-2
  1

  0
LINE
  5
4D
100
AcDbEntity
  8
lines
370
               5
390
0
  6
Continuous
 62
               7
100
AcDbLine
 10
6.3749999999999982
 20
-42.75
 30
0.0
 11
7.6249999999974563
 21
-40.584936490543335
 31
0.0
  0
LINE
  5
4E
100
AcDbEntity
  8
lines
370
               5
390
0
  6
Continuous
 62
               7
100
AcDbLine
 10
8.8749999999949143
 20
-42.75
 30
0.0
 11
7.6249999999974563
 21
-40.584936490543335
 31
0.0
  0
LINE
  5
4F
100
AcDbEntity
  8
lines
370
               5
390
0
  6
Continuous
 62
               7
100
AcDbLine
 10
8.8749999999949143
 20
-42.75
 30
0.0
 11
6.3749999999999982
 21
-42.75
 31
0.0
  0
ENDBLK
  5
50
100
AcDbEntity
  8
lines
390
0
100
AcDbBlockEnd
  0
BLOCK
  5
51
100
AcDbEntity
  8
lines
390
0
100
AcDbBlockBegin
  2
Group-3
 70
               0
 10
0.0
 20
0.0
 30
0.0
  3
Group-3
  1

  0
LINE
  5
52
100
AcDbEntity
  8
lines
370
               5
390
0
  6
Continuous
 62
               7
100
AcDbLine
 10
-30.124999999997456
 20
-23.375000000000004
 30
0.0
 11
-28.875
 21
-21.209936490543342
 31
0.0
  0
LINE
  5
53
100
AcDbEntity
  8
lines
370
               5
390
0
  6
Continuous
 62
               7
100
AcDbLine
 10
-27.625000000002544
 20
-23.375000000000004
 30
0.0
 11
-28.875
 21
-21.209936490543342
 31
0.0
  0
LINE
  5
54
100
AcDbEntity
  8
lines
370
               5
390
0
  6
Continuous
 62
               7
100
AcDbLine
 10
-27.625000000002544
 20
-23.375000000000004
 30
0.0
 11
-30.124999999997456
 21
-23.375000000000004
 31
0.0
  0
ENDBLK
  5
55
100
AcDbEntity
  8
lines
390
0
100
AcDbBlockEnd
  0
BLOCK
  5
56
100
AcDbEntity
  8
lines
390
0
100
AcDbBlockBegin
  2
Group-4
 70
               0
 10
0.0
 20
0.0
 30
0.0
  3
Group-4
  1

  0
LINE
  5
57
100
AcDbEntity
  8
lines
370
               5
390
0
  6
Continuous
 62
               7
100
AcDbLine
 10
-31.999999999997456
 20
-13.874999999999998
 30
0.0
 11
-30.75
 21
-11.709936490543338
 31
0.0
  0
LINE
  5
58
100
AcDbEntity
  8
lines
370
               5
390
0
  6
Continuous
 62
               7
100
AcDbLine
 10
-29.500000000002544
 20
-13.874999999999998
 30
0.0
 11
-30.75
 21
-11.709936490543338
 31
0.0
  0
LINE
  5
59
100
AcDbEntity
  8
lines
370
               5
390
0
  6
Continuous
 62
               7
100
AcDbLine
 10
-29.500000000002544
 20
-13.874999999999998
 30
0.0
 11
-31.999999999997456
 21
-13.874999999999998
 31
0.0
  0
ENDBLK
  5
5A
100
AcDbEntity
  8
lines
390
0
100
AcDbBlockEnd
  0
BLOCK
  5
5B
100
AcDbEntity
  8
lines
390
0
100
AcDbBlockBegin
  2
Group-5
 70
               0
 10
0.0
 20
0.0
 30
0.0
  3
Group-5
  1

  0
LINE
  5
5C
100
AcDbEntity
  8
lines
370
               5
390
0
  6
Continuous
 62
               7
100
AcDbLine
 10
-35.249999999997456
 20
2.1250000000000009
 30
0.0
 11
-34.0
 21
4.2900635094566617
 31
0.0
  0
LINE
  5
5D
100
AcDbEntity
  8
lines
370
               5
390
0
  6
Continuous
 62
               7
100
AcDbLine
 10
-32.750000000002544
 20
2.1250000000000009
 30
0.0
 11
-34.0
 21
4.2900635094566617
 31
0.0
  0
LINE
  5
5E
100
AcDbEntity
  8
lines
370
               5
390
0
  6
Continuous
 62
               7
100
AcDbLine
 10
-32.750000000002544
 20
2.1250000000000009
 30
0.0
 11
-35.249999999997456
 21
2.1250000000000009
 31
0.0
  0
ENDBLK
  5
5F
100
AcDbEntity
  8
lines
390
0
100
AcDbBlockEnd
  0
BLOCK
  5
60
100
AcDbEntity
  8
lines
390
0
100
AcDbBlockBegin
  2
Group-6
 70
               0
 10
0.0
 20
0.0
 30
0.0
  3
Group-6
  1

  0
LINE
  5
61
100
AcDbEntity
  8
lines
370
               5
390
0
  6
Continuous
 62
               7
100
AcDbLine
 10
27.000000000002544
 20
29.874999999999993
 30
0.0
 11
28.25
 21
32.040063509456658
 31
0.0
  0
LINE
  5
62
100
AcDbEntity
  8
lines
370
               5
390
0
  6
Continuous
 62
               7
100
AcDbLine
 10
29.499999999997456
 20
29.874999999999993
 30
0.0
 11
28.25
 21
32.040063509456658
 31
0.0
  0
LINE
  5
63
100
AcDbEntity
  8
lines
370
               5
390
0
  6
Continuous
 62
               7
100
AcDbLine
 10
29.499999999997456
 20
29.874999999999993
 30
0.0
 11
27.000000000002544
 21
29.874999999999993
 31
0.0
  0
ENDBLK
  5
64
100
AcDbEntity
  8
lines
390
0
100
AcDbBlockEnd
  0
BLOCK
  5
65
100
AcDbEntity
  8
lines
390
0
100
AcDbBlockBegin
  2
Group-7
 70
               0
 10
0.0
 20
0.0
 30
0.0
  3
Group-7
  1

  0
LINE
  5
66
100
AcDbEntity
  8
lines
370
               5
390
0
  6
Continuous
 62
               7
100
AcDbLine
 10
17.12500000000254
 20
43.375
 30
0.0
 11
18.375
 21
45.540063509456658
 31
0.0
  0
LINE
  5
67
100
AcDbEntity
  8
lines
370
               5
390
0
  6
Continuous
 62
               7
100
AcDbLine
 10
19.624999999997456
 20
43.375
 30
0.0
 11
18.375
 21
45.540063509456658
 31
0.0
  0
LINE
  5
68
100
AcDbEntity
  8
lines
370
               5
390
0
  6
Continuous
 62
               7
100
AcDbLine
 10
19.624999999997456
 20
43.375
 30
0.0
 11
17.12500000000254
 21
43.375
 31
0.0
  0
ENDBLK
  5
69
100
AcDbEntity
  8
lines
390
0
100
AcDbBlockEnd
  0
BLOCK
  5
6A
100
AcDbEntity
  8
lines
390
0
100
AcDbBlockBegin
  2
Group-8
 70
               0
 10
0.0
 20
0.0
 30
0.0
  3
Group-8
  1

  0
LINE
  5
6B
100
AcDbEntity
  8
lines
370
               5
390
0
  6
Continuous
 62
               7
100
AcDbLine
 10
-82.87499999999747
 20
79.0
 30
0.0
 11
-81.625000000000014
 21
81.165063509456672
 31
0.0
  0
LINE
  5
6C
100
AcDbEntity
  8
lines
370
               5
390
0
  6
Continuous
 62
               7
100
AcDbLine
 10
-80.375000000002544
 20
79.0
 30
0.0
 11
-81.625000000000014
 21
81.165063509456672
 31
0.0
  0
LINE
  5
6D
100
AcDbEntity
  8
lines
370
               5
390
0
  6
Continuous
 62
               7
100
AcDbLine
 10
-80.375000000002544
 20
79.0
 30
0.0
 11
-82.87499999999747
 21
79.0
 31
0.0
  0
ENDBLK
  5
6E
100
AcDbEntity
  8
lines
390
0
100
AcDbBlockEnd
  0
BLOCK
  5
6F
100
AcDbEntity
  8
lines
390
0
100
AcDbBlockBegin
  2
Group-9
 70
               0
 10
0.0
 20
0.0
 30
0.0
  3
Group-9
  1

  0
CIRCLE
  5
70
100
AcDbEntity
  8
lines
370
               5
390
0
  6
Continuous
 62
               7
100
AcDbCircle
 10
-50.446940952622263
 20
-47.577813925775921
 30
0.0
 40
1.2747548783981955
  0
LINE
  5
71
100
AcDbEntity
  8
lines
370
               5
390
0
  6
Continuous
 62
               7
100
AcDbLine
 10
-49.172186074224072
 20
-47.577813925775921
 30
0.0
 11
-48.672186074224072
 21
-47.577813925775921
 31
0.0
  0
LINE
  5
72
100
AcDbEntity
  8
lines
370
               5
390
0
  6
Continuous
 62
               7
100
AcDbLine
 10
-50.446940952622263
 20
-46.303059047377729
 30
0.0
 11
-50.446940952622263
 21
-45.803059047377729
 31
0.0
  0
LINE
  5
73
100
AcDbEntity
  8
lines
370
               5
390
0
  6
Continuous
 62
               7
100
AcDbLine
 10
-51.721695831020455
 20
-47.577813925775921
 30
0.0
 11
-52.221695831020462
 21
-47.577813925775921
 31
0.0
  0
LINE
  5
74
100
AcDbEntity
  8
lines
370
               5
390
0
  6
Continuous
 62
               7
100
AcDbLine
 10
-50.446940952622263
 20
-48.852568804174112
 30
0.0
 11
-50.446940952622263
 21
-49.352568804174119
 31
0.0
  0
ENDBLK
  5
75
100
AcDbEntity
  8
lines
390
0
100
AcDbBlockEnd
  0
BLOCK
  5
76
100
AcDbEntity
  8
lines
390
0
100
AcDbBlockBegin
  2
Group-10
 70
               0
 10
0.0
 20
0.0
 30
0.0
  3
Group-10
  1

  0
LINE
  5
77
100
AcDbEntity
  8
lines
370
               5
390
0
  6
Continuous
 62
               7
100
AcDbLine
 10
-67.999999999997456
 20
-44.625
 30
0.0
 11
-66.75
 21
-42.459936490543335
 31
0.0
  0
LINE
  5
78
100
AcDbEntity
  8
lines
370
               5
390
0
  6
Continuous
 62
               7
100
AcDbLine
 10
-65.500000000002544
 20
-44.625
 30
0.0
 11
-66.75
 21
-42.459936490543335
 31
0.0
  0
LINE
  5
79
100
AcDbEntity
  8
lines
370
               5
390
0
  6
Continuous
 62
               7
100
AcDbLine
 10
-65.500000000002544
 20
-44.625
 30
0.0
 11
-67.999999999997456
 21
-44.625
 31
0.0
  0
ENDBLK
  5
7A
100
AcDbEntity
  8
lines
390
0
100
AcDbBlockEnd
  0
BLOCK
  5
7B
100
AcDbEntity
  8
lines
390
0
100
AcDbBlockBegin
  2
Group-11
 70
               0
 10
0.0
 20
0.0
 30
0.0
  3
Group-11
  1

  0
CIRCLE
  5
7C
100
AcDbEntity
  8
lines
370
               5
390
0
  6
Continuous
 62
               7
100
AcDbCircle
 10
-22.464825348233607
 20
-44.559738466941539
 30
0.0
 40
1.2747548783981955
  0
LINE
  5
7D
100
AcDbEntity
  8
lines
370
               5
390
0
  6
Continuous
 62
               7
100
AcDbLine
 10
-21.190070469835415
 20
-44.559738466941539
 30
0.0
 11
-20.690070469835412
 21
-44.559738466941539
 31
0.0
  0
LINE
  5
7E
100
AcDbEntity
  8
lines
370
               5
390
0
  6
Continuous
 62
               7
100
AcDbLine
 10
-22.464825348233607
 20
-43.284983588543348
 30
0.0
 11
-22.464825348233607
 21
-42.784983588543348
 31
0.0
  0
LINE
  5
7F
100
AcDbEntity
  8
lines
370
               5
390
0
  6
Continuous
 62
               7
100
AcDbLine
 10
-23.739580226631798
 20
-44.559738466941539
 30
0.0
 11
-24.239580226631798
 21
-44.559738466941539
 31
0.0
  0
LINE
  5
80
100
AcDbEntity
  8
lines
370
               5
390
0
  6
Continuous
 62
               7
100
AcDbLine
 10
-22.464825348233607
 20
-45.83449334533973
 30
0.0
 11
-22.464825348233607
 21
-46.334493345339737
 31
0.0
  0
ENDBLK
  5
81
100
AcDbEntity
  8
lines
390
0
100
AcDbBlockEnd
  0
BLOCK
  5
82
100
AcDbEntity
  8
lines
390
0
100
AcDbBlockBegin
  2
Group-12
 70
               0
 10
0.0
 20
0.0
 30
0.0
  3
Group-12
  1

  0
CIRCLE
  5
83
100
AcDbEntity
  8
lines
370
               5
390
0
  6
Continuous
 62
               7
100
AcDbCircle
 10
-41.274754878398191
 20
53.249999999999993
 30
0.0
 40
1.2747548783981955
  0
LINE
  5
84
100
AcDbEntity
  8
lines
370
               5
390
0
  6
Continuous
 62
               7
100
AcDbLine
 10
-40.0
 20
53.249999999999993
 30
0.0
 11
-39.5
 21
53.249999999999993
 31
0.0
  0
LINE
  5
85
100
AcDbEntity
  8
lines
370
               5
390
0
  6
Continuous
 62
               7
100
AcDbLine
 10
-41.274754878398191
 20
54.524754878398184
 30
0.0
 11
-41.274754878398191
 21
55.024754878398184
 31
0.0
  0
LINE
  5
86
100
AcDbEntity
  8
lines
370
               5
390
0
  6
Continuous
 62
               7
100
AcDbLine
 10
-42.549509756796382
 20
53.249999999999993
 30
0.0
 11
-43.04950975679639
 21
53.249999999999993
 31
0.0
  0
LINE
  5
87
100
AcDbEntity
  8
lines
370
               5
390
0
  6
Continuous
 62
               7
100
AcDbLine
 10
-41.274754878398191
 20
51.975245121601802
 30
0.0
 11
-41.274754878398191
 21
51.475245121601802
 31
0.0
  0
ENDBLK
  5
88
100
AcDbEntity
  8
lines
390
0
100
AcDbBlockEnd
  0
BLOCK
  5
89
100
AcDbEntity
  8
lines
390
0
100
AcDbBlockBegin
  2
Group-13
 70
               0
 10
0.0
 20
0.0
 30
0.0
  3
Group-13
  1

  0
CIRCLE
  5
8A
100
AcDbEntity
  8
lines
370
               5
390
0
  6
Continuous
 62
               7
100
AcDbCircle
 10
-84.5
 20
56.774754878398184
 30
0.0
 40
1.2747548783981955
  0
LINE
  5
8B
100
AcDbEntity
  8
lines
370
               5
390
0
  6
Continuous
 62
               7
100
AcDbLine
 10
-83.225245121601802
 20
56.774754878398184
 30
0.0
 11
-82.725245121601787
 21
56.774754878398184
 31
0.0
  0
LINE
  5
8C
100
AcDbEntity
  8
lines
370
               5
390
0
  6
Continuous
 62
               7
100
AcDbLine
 10
-84.5
 20
58.049509756796375
 30
0.0
 11
-84.5
 21
58.549509756796382
 31
0.0
  0
LINE
  5
8D
100
AcDbEntity
  8
lines
370
               5
390
0
  6
Continuous
 62
               7
100
AcDbLine
 10
-85.774754878398184
 20
56.774754878398184
 30
0.0
 11
-86.274754878398198
 21
56.774754878398184
 31
0.0
  0
LINE
  5
8E
100
AcDbEntity
  8
lines
370
               5
390
0
  6
Continuous
 62
               7
100
AcDbLine
 10
-84.5
 20
55.499999999999993
 30
0.0
 11
-84.5
 21
54.999999999999993
 31
0.0
  0
ENDBLK
  5
8F
100
AcDbEntity
  8
lines
390
0
100
AcDbBlockEnd
  0
BLOCK
  5
90
100
AcDbEntity
  8
lines
390
0
100
AcDbBlockBegin
  2
Group-14
 70
               0
 10
0.0
 20
0.0
 30
0.0
  3
Group-14
  1

  0
CIRCLE
  5
91
100
AcDbEntity
  8
lines
370
               5
390
0
  6
Continuous
 62
               7
100
AcDbCircle
 10
-97.75
 20
91.399754878398184
 30
0.0
 40
1.2747548783981955
  0
LINE
  5
92
100
AcDbEntity
  8
lines
370
               5
390
0
  6
Continuous
 62
               7
100
AcDbLine
 10
-96.475245121601816
 20
91.399754878398184
 30
0.0
 11
-95.975245121601802
 21
91.399754878398184
 31
0.0
  0
LINE
  5
93
100
AcDbEntity
  8
lines
370
               5
390
0
  6
Continuous
 62
               7
100
AcDbLine
 10
-97.75
 20
92.674509756796382
 30
0.0
 11
-97.75
 21
93.174509756796382
 31
0.0
  0
LINE
  5
94
100
AcDbEntity
  8
lines
370
               5
390
0
  6
Continuous
 62
               7
100
AcDbLine
 10
-99.024754878398198
 20
91.399754878398184
 30
0.0
 11
-99.524754878398198
 21
91.399754878398184
 31
0.0
  0
LINE
  5
95
100
AcDbEntity
  8
lines
370
               5
390
0
  6
Continuous
 62
               7
100
AcDbLine
 10
-97.75
 20
90.125
 30
0.0
 11
-97.75
 21
89.624999999999986
 31
0.0
  0
ENDBLK
  5
96
100
AcDbEntity
  8
lines
390
0
100
AcDbBlockEnd
  0
BLOCK
  5
97
100
AcDbEntity
  8
lines
390
0
100
AcDbBlockBegin
  2
Group-15
 70
               0
 10
0.0
 20
0.0
 30
0.0
  3
Group-15
  1

  0
CIRCLE
  5
98
100
AcDbEntity
  8
lines
370
               5
390
0
  6
Continuous
 62
               7
100
AcDbCircle
 10
90.511189643274022
 20
10.799868403484938
 30
0.0
 40
1.2747548783981955
  0
LINE
  5
99
100
AcDbEntity
  8
lines
370
               5
390
0
  6
Continuous
 62
               7
100
AcDbLine
 10
91.785944521672207
 20
10.799868403484938
 30
0.0
 11
92.285944521672221
 21
10.799868403484938
 31
0.0
  0
LINE
  5
9A
100
AcDbEntity
  8
lines
370
               5
390
0
  6
Continuous
 62
               7
100
AcDbLine
 10
90.511189643274022
 20
12.074623281883129
 30
0.0
 11
90.511189643274022
 21
12.574623281883131
 31
0.0
  0
LINE
  5
9B
100
AcDbEntity
  8
lines
370
               5
390
0
  6
Continuous
 62
               7
100
AcDbLine
 10
89.236434764875824
 20
10.799868403484938
 30
0.0
 11
88.736434764875838
 21
10.799868403484938
 31
0.0
  0
LINE
  5
9C
100
AcDbEntity
  8
lines
370
               5
390
0
  6
Continuous
 62
               7
100
AcDbLine
 10
90.511189643274022
 20
9.5251135250867431
 30
0.0
 11
90.511189643274022
 21
9.0251135250867414
 31
0.0
  0
ENDBLK
  5
9D
100
AcDbEntity
  8
lines
390
0
100
AcDbBlockEnd
  0
ENDSEC
  0
SECTION
  2
ENTITIES
  0
IMAGE
  5
9E
100
AcDbEntity
  8
None
390
0
 92
      140
310
00000000000000008400000006000000050000000000000000005EC0FEFFFFFFFFDF58C000000000000000000000000000005EC0FEFFFFFFFF1F5F400000000000000000FEFFFFFFFFFF5D40FEFFFFFFFF1F5F400000000000000000FEFFFFFFFFFF5D40FEFFFFFFFFDF58C000000000000000000000000000005EC0FEFFFF
310
FFFFDF58C00000000000000000
100
AcDbRasterImage
 90
        0
 10
-120.0
 20
-99.499999999999972
 30
0.0
 11
0.24
 21
0.0
 31
0.0
 12
0.0
 22
0.224
 32
0.0
 13
1000.0
 23
1000.0
340
A2
 70
               7
280
               0
281
              50
282
              50
283
               0
360
A1
 71
               1
 91
        2
 14
-0.5
 24
-0.5
 14
999.5
 24
999.5
  0
POLYLINE
  5
A3
100
AcDbEntity
  8
lines
370
               5
390
0
  6
Continuous
 62
               7
100
AcDb2dPolyline
 66
               1
 10
0.0
 20
0.0
 30
0.0
 70
               1
 75
               5
  0
VERTEX
  5
A4
100
AcDbEntity
  8
lines
370
               5
390
0
  6
Continuous
 62
               7
100
AcDbVertex
100
AcDb2dVertex
 10
8.375
 20
-77.75
 30
0.0
  0
VERTEX
  5
A5
100
AcDbEntity
  8
lines
370
               5
390
0
  6
Continuous
 62
               7
100
AcDbVertex
100
AcDb2dVertex
 10
68.75
 20
-25.874999999999996
 30
0.0
  0
VERTEX
  5
A6
100
AcDbEntity
  8
lines
370
               5
390
0
  6
Continuous
 62
               7
100
AcDbVertex
100
AcDb2dVertex
 10
95.125
 20
16.625
 30
0.0
  0
VERTEX
  5
A7
100
AcDbEntity
  8
lines
370
               5
390
0
  6
Continuous
 62
               7
100
AcDbVertex
100
AcDb2dVertex
 10
62.875
 20
85.5
 30
0.0
  0
VERTEX
  5
A8
100
AcDbEntity
  8
lines
370
               5
390
0
  6
Continuous
 62
               7
100
AcDbVertex
100
AcDb2dVertex
 10
1.0
 20
113.49999999999999
 30
0.0
  0
VERTEX
  5
A9
100
AcDbEntity
  8
lines
370
               5
390
0
  6
Continuous
 62
               7
100
AcDbVertex
100
AcDb2dVertex
 10
-77.0
 20
84.375
 30
0.0
  0
VERTEX
  5
AA
100
AcDbEntity
  8
lines
370
               5
390
0
  6
Continuous
 62
               7
100
AcDbVertex
100
AcDb2dVertex
 10
-102.5
 20
16.5
 30
0.0
  0
VERTEX
  5
AB
100
AcDbEntity
  8
lines
370
               5
390
0
  6
Continuous
 62
               7
100
AcDbVertex
100
AcDb2dVertex
 10
-76.5
 20
-47.5
 30
0.0
  0
SEQEND
  5
AC
100
AcDbEntity
  8
lines
370
               5
390
0
  6
Continuous
 62
               7
  0
CIRCLE
  5
AE
100
AcDbEntity
  8
lines
370
               5
390
0
  6
Continuous
 62
               7
100
AcDbCircle
 10
-5.7271487223812798
 20
17.274606990438109
 30
0.0
 40
149.99359952483235
  0
ARC
  5
AF
100
AcDbEntity
  8
lines
370
               5
390
0
  6
Continuous
 62
               7
100
AcDbCircle
 10
-6.261293496188733
 20
18.805243908600524
 30
0.0
 40
39.246777698765236
100
AcDbArc
 50
125.29469341090828
 51
149.10519591856018
  0
LINE
  5
B0
100
AcDbEntity
  8
lines
370
               5
390
0
  6
Continuous
 62
               7
100
AcDbLine
 10
-25.255200772357576
 20
29.858556020511301
 30
0.0
 11
-99.32029524094493
 21
75.75
 31
0.0
  0
LINE
  5
B1
100
AcDbEntity
  8
lines
370
               5
390
0
  6
Continuous
 62
               7
100
AcDbLine
 10
-39.323452268019217
 20
30.346658263389347
 30
0.0
 11
-108.91492494382196
 21
55.75
 31
0.0
  0
LINE
  5
B2
100
AcDbEntity
  8
lines
370
               5
390
0
  6
Continuous
 62
               7
100
AcDbLine
 10
-28.937376516292467
 20
50.8381148164923
 30
0.0
 11
-67.5
 21
109.09646096640509
 31
0.0
  0
LINE
  5
B3
100
AcDbEntity
  8
lines
370
               5
390
0
  6
Continuous
 62
               7
100
AcDbLine
 10
-112.50045083252634
 20
43.625107163710844
 30
0.0
 11
-151.43358481895774
 21
52.879583867976891
 31
0.0
  0
LINE
  5
B4
100
AcDbEntity
  8
lines
370
               5
390
0
  6
Continuous
 62
               7
100
AcDbLine
 10
60.602507801402098
 20
103.33622249399286
 30
0.0
 11
86.375
 21
135.66072990666567
 31
0.0
  0
LINE
  5
B5
100
AcDbEntity
  8
lines
370
               5
390
0
  6
Continuous
 62
               7
100
AcDbLine
 10
-79.375000000000028
 20
-60.684632078774868
 30
0.0
 11
-108.20856343746931
 21
-92.250000000000014
 31
0.0
  0
ARC
  5
B6
100
AcDbEntity
  8
lines
370
               5
390
0
  6
Continuous
 62
               7
100
AcDbCircle
 10
-7.0
 20
18.547458268056829
 30
0.0
 40
108.44000000000001
100
AcDbArc
 50
51.434468452523603
 51
166.62883618413235
  0
MTEXT
  5
B7
100
AcDbEntity
  8
lines
390
0
 62
               7
100
AcDbMText
 10
-78.0
 20
52.25
 30
0.0
 40
4.6666666666666661
 41
0.0
 71
               5
 72
               1
  1
81
  7
MD11 DU
 73
               1
 44
0.602409638554217
  0
MTEXT
  5
B8
100
AcDbEntity
  8
lines
390
0
 62
               7
100
AcDbMText
 10
-64.25
 20
73.75
 30
0.0
 40
4.6666666666666661
 41
0.0
 71
               5
 72
               1
  1
62
  7
MD11 DU
 73
               1
 44
0.602409638554217
  0
MTEXT
  5
B9
100
AcDbEntity
  8
lines
390
0
 62
               7
100
AcDbMText
 10
-18.25
 20
14.75
 30
0.0
 40
4.6666666666666661
 41
0.0
 71
               5
 72
               1
  1
57
  7
MD11 DU
 73
               1
 44
0.602409638554217
  0
POINT
  5
BA
100
AcDbEntity
  8
lines
370
               5
390
0
  6
Continuous
 62
               7
100
AcDbPoint
 10
-7.0
 20
18.547458268056829
 30
0.0
  0
LINE
  5
BB
100
AcDbEntity
  8
lines
370
               5
390
0
  6
Continuous
 62
               7
100
AcDbLine
 10
-7.0
 20
18.547458268056829
 30
0.0
 11
-34.914569799853147
 21
45.625
 31
0.0
  0
LINE
  5
BC
100
AcDbEntity
  8
lines
370
               5
390
0
  6
Continuous
 62
               7
100
AcDbLine
 10
-11.766164931869882
 20
-2.3923831699025055
 30
0.0
 11
-40.500000000000007
 21
-128.63265366659843
 31
0.0
  0
LINE
  5
BD
100
AcDbEntity
  8
lines
370
               5
390
0
  6
Continuous
 62
               7
100
AcDbLine
 10
-7.0
 20
18.547458268056829
 30
0.0
 11
16.286973468592951
 21
-131.09472381137093
 31
0.0
  0
ARC
  5
BE
100
AcDbEntity
  8
lines
370
               5
390
0
  6
Continuous
 62
               7
100
AcDbCircle
 10
-7.0
 20
18.547458268056829
 30
0.0
 40
34.409688854344076
100
AcDbArc
 50
148.21724714162971
 51
257.17723621551897
  0
ARC
  5
BF
100
AcDbEntity
  8
lines
370
               5
390
0
  6
Continuous
 62
               7
100
AcDbCircle
 10
-7.0
 20
18.547458268056829
 30
0.0
 40
50.39682062091606
100
AcDbArc
 50
257.17723621551897
 51
278.84529149416295
  0
MTEXT
  5
C0
100
AcDbEntity
  8
lines
390
0
 62
               7
100
AcDbMText
 10
-9.8749999999999929
 20
-80.25
 30
0.0
 40
4.6666666666666661
 41
0.0
 71
               5
 72
               1
  1
71
  7
MD11 DU
 73
               1
 44
0.602409638554217
  0
MTEXT
  5
C1
100
AcDbEntity
  8
lines
390
0
 62
               7
100
AcDbMText
 10
-8.25
 20
-18.25
 30
0.0
 40
4.6666666666666661
 41
0.0
 71
               5
 72
               1
  1
57
  7
MD11 DU
 73
               1
 44
0.602409638554217
  0
MTEXT
  5
C2
100
AcDbEntity
  8
lines
390
0
 62
               7
100
AcDbMText
 10
72.0
 20
19.250000000000004
 30
0.0
 40
4.6666666666666661
 41
0.0
 71
               5
 72
               1
  1
53
  7
MD11 DU
 73
               1
 44
0.602409638554217
  0
ARC
  5
C3
100
AcDbEntity
  8
lines
370
               5
390
0
  6
Continuous
 62
               7
100
AcDbCircle
 10
-7.0
 20
18.547458268056829
 30
0.0
 40
21.475411232492505
100
AcDbArc
 50
135.87202457285971
 51
278.84529149416295
  0
MTEXT
  5
C4
100
AcDbEntity
  8
lines
390
0
 62
               7
100
AcDbMText
 10
-33.03423229961502
 20
38.651782382028173
 30
0.0
 40
3.9999999999999996
 41
0.0
 71
               5
 72
               1
  1
54
  7
MD11 DU
 73
               1
 44
0.6024096385542169
  0
MTEXT
  5
C5
100
AcDbEntity
  8
lines
390
0
 62
               7
100
AcDbMText
 10
-54.249999999999993
 20
-34.75
 30
0.0
 40
4.6666666666666661
 41
0.0
 71
               5
 72
               1
  1
ch
  7
MD11 DU
 73
               1
 44
0.602409638554217
  0
LINE
  5
C6
100
AcDbEntity
  8
lines
370
               5
390
0
  6
Continuous
 62
               7
100
AcDbLine
 10
-97.879490869205725
 20
-38.520771992592167
 30
0.0
 11
-133.67700530263792
 21
-61.0
 31
0.0
  0
ARC
  5
C7
100
AcDbEntity
  8
lines
370
               5
390
0
  6
Continuous
 62
               7
100
AcDbCircle
 10
-7.0
 20
18.547458268056829
 30
0.0
 40
107.31199730565312
100
AcDbArc
 50
212.12697166368562
 51
227.58968599924475
  0
MTEXT
  5
C8
100
AcDbEntity
  8
lines
390
0
 62
               7
100
AcDbMText
 10
-102.125
 20
-60.75
 30
0.0
 40
4.6666666666666661
 41
0.0
 71
               5
 72
               1
  1
93
  7
MD11 DU
 73
               1
 44
0.602409638554217
  0
MTEXT
  5
C9
100
AcDbEntity
  8
lines
390
0
 62
               7
100
AcDbMText
 10
-75.726316483762943
 20
-16.838819526593976
 30
0.0
 40
4.6666666666666661
 41
0.0
 71
               5
 72
               1
  1
88
  7
MD11 DU
 73
               1
 44
0.602409638554217
  0
MTEXT
  5
CA
100
AcDbEntity
  8
lines
390
0
 62
               7
100
AcDbMText
 10
-39.0
 20
-23.0
 30
0.0
 40
4.6666666666666661
 41
0.0
 71
               5
 72
               1
  1
r
  7
MD11 DU
 73
               1
 44
0.602409638554217
  0
MTEXT
  5
CB
100
AcDbEntity
  8
lines
390
0
 62
               7
100
AcDbMText
 10
-33.5
 20
10.5
 30
0.0
 40
4.6666666666666661
 41
0.0
 71
               5
 72
               1
  1
69
  7
MD11 DU
 73
               1
 44
0.602409638554217
  0
INSERT
  5
CC
100
AcDbEntity
  8
lines
390
0
 62
               7
100
AcDbBlockReference
  2
Group
 10
0.0
 20
0.0
 30
0.0
  0
INSERT
  5
CD
100
AcDbEntity
  8
lines
390
0
 62
               7
100
AcDbBlockReference
  2
Group-1
 10
0.0
 20
0.0
 30
0.0
  0
INSERT
  5
CE
100
AcDbEntity
  8
lines
390
0
 62
               7
100
AcDbBlockReference
  2
Group-2
 10
0.0
 20
0.0
 30
0.0
  0
INSERT
  5
CF
100
AcDbEntity
  8
lines
390
0
 62
               7
100
AcDbBlockReference
  2
Group-3
 10
0.0
 20
0.0
 30
0.0
  0
INSERT
  5
D0
100
AcDbEntity
  8
lines
390
0
 62
               7
100
AcDbBlockReference
  2
Group-4
 10
0.0
 20
0.0
 30
0.0
  0
INSERT
  5
D1
100
AcDbEntity
  8
lines
390
0
 62
               7
100
AcDbBlockReference
  2
Group-5
 10
0.0
 20
0.0
 30
0.0
  0
INSERT
  5
D2
100
AcDbEntity
  8
lines
390
0
 62
               7
100
AcDbBlockReference
  2
Group-6
 10
0.0
 20
0.0
 30
0.0
  0
INSERT
  5
D3
100
AcDbEntity
  8
lines
390
0
 62
               7
100
AcDbBlockReference
  2
Group-7
 10
0.0
 20
0.0
 30
0.0
  0
INSERT
  5
D4
100
AcDbEntity
  8
lines
390
0
 62
               7
100
AcDbBlockReference
  2
Group-8
 10
0.0
 20
0.0
 30
0.0
  0
INSERT
  5
D5
100
AcDbEntity
  8
lines
390
0
 62
               7
100
AcDbBlockReference
  2
Group-9
 10
0.0
 20
0.0
 30
0.0
  0
INSERT
  5
D6
100
AcDbEntity
  8
lines
390
0
 62
               7
100
AcDbBlockReference
  2
Group-10
 10
0.0
 20
0.0
 30
0.0
  0
INSERT
  5
D7
100
AcDbEntity
  8
lines
390
0
 62
               7
100
AcDbBlockReference
  2
Group-11
 10
0.0
 20
0.0
 30
0.0
  0
INSERT
  5
D8
100
AcDbEntity
  8
lines
390
0
 62
               7
100
AcDbBlockReference
  2
Group-12
 10
0.0
 20
0.0
 30
0.0
  0
INSERT
  5
D9
100
AcDbEntity
  8
lines
390
0
 62
               7
100
AcDbBlockReference
  2
Group-13
 10
0.0
 20
0.0
 30
0.0
  0
INSERT
  5
DA
100
AcDbEntity
  8
lines
390
0
 62
               7
100
AcDbBlockReference
  2
Group-14
 10
0.0
 20
0.0
 30
0.0
  0
INSERT
  5
DB
100
AcDbEntity
  8
lines
390
0
 62
               7
100
AcDbBlockReference
  2
Group-15
 10
0.0
 20
0.0
 30
0.0
  0
ENDSEC
  0
SECTION
  2
OBJECTS
  0
DICTIONARY
  5
19
100
AcDbDictionary
280
               0
281
               1
  3
ACAD_GROUP
350
1A
  3
ACAD_MLINESTYLE
350
1B
  3
ACAD_LAYOUT
350
1E
  3
ACAD_PLOTSETTINGS
350
22
  3
ACAD_PLOTSTYLENAME
350
1F
  3
ACAD_WIPEOUT_VARS
350
23
  3
ACAD_IMAGE_VARS
350
9F
  3
ACAD_IMAGE_DICT
350
A0
  0
DICTIONARY
  5
1A
102
{ACAD_REACTORS
330
19
102
}
100
AcDbDictionary
280
               0
281
               1
  0
DICTIONARY
  5
1B
102
{ACAD_REACTORS
330
19
102
}
100
AcDbDictionary
280
               0
281
               1
  3
Standard
350
1C
  0
MLINESTYLE
  5
1C
102
{ACAD_REACTORS
330
1B
102
}
100
AcDbMlineStyle
  2
Standard
 70
               0
  3

 62
               0
 51
90.0
 52
90.0
 71
               2
 49
0.5
 62
             256
  6
ByLayer
 49
-0.5
 62
             256
  6
ByLayer
  0
ACDBDICTIONARYWDFLT
  5
1F
102
{ACAD_REACTORS
330
19
102
}
100
AcDbDictionary
281
               1
  3
Normal
350
1D
100
AcDbDictionaryWithDefault
340
1D
  0
ACDBPLACEHOLDER
  5
1D
102
{ACAD_REACTORS
330
1F
102
}
  0
LAYOUT
  5
20
102
{ACAD_REACTORS
330
1E
102
}
100
AcDbPlotSettings
  1

  2

  4

  6

 40
0.0
 41
0.0
 42
0.0
 43
0.0
 44
0.0
 45
0.0
 46
0.0
 47
0.0
 48
0.0
 49
0.0
140
0.0
141
0.0
142
1.0
143
1.0
 70
            1024
 72
               0
 73
               0
 74
               0
  7

 75
               0
147
1.0
148
0.0
149
0.0
100
AcDbLayout
  1
Model
 70
               0
 71
               0
 10
0.0
 20
0.0
 11
0.0
 21
0.0
 12
0.0
 22
0.0
 32
0.0
 14
0.0
 24
0.0
 34
0.0
 15
0.0
 25
0.0
 35
0.0
146
0.0
 13
0.0
 23
0.0
 33
0.0
 16
0.0
 26
0.0
 36
0.0
 17
0.0
 27
0.0
 37
0.0
 76
               0
330
A
331
0
345
0
346
0
  0
LAYOUT
  5
21
102
{ACAD_REACTORS
330
1E
102
}
100
AcDbPlotSettings
  1

  2

  4

  6

 40
0.0
 41
0.0
 42
0.0
 43
0.0
 44
0.0
 45
0.0
 46
0.0
 47
0.0
 48
0.0
 49
0.0
140
0.0
141
0.0
142
1.0
143
1.0
 70
               0
 72
               0
 73
               0
 74
               0
  7

 75
               0
147
1.0
148
0.0
149
0.0
100
AcDbLayout
  1
Layout1
 70
               0
 71
               0
 10
0.0
 20
0.0
 11
0.0
 21
0.0
 12
0.0
 22
0.0
 32
0.0
 14
0.0
 24
0.0
 34
0.0
 15
0.0
 25
0.0
 35
0.0
146
0.0
 13
0.0
 23
0.0
 33
0.0
 16
0.0
 26
0.0
 36
0.0
 17
0.0
 27
0.0
 37
0.0
 76
               0
330
B
331
0
345
0
346
0
  0
DICTIONARY
  5
1E
102
{ACAD_REACTORS
330
19
102
}
100
AcDbDictionary
280
               0
281
               1
  3
Layout1
350
21
  3
Model
350
20
  0
DICTIONARY
  5
22
102
{ACAD_REACTORS
330
19
102
}
100
AcDbDictionary
280
               0
281
               1
  0
WIPEOUTVARIABLES
  5
23
100
AcDbWipeoutVariables
 70
               0
  0
RASTERVARIABLES
  5
9F
102
{ACAD_REACTORS
330
19
102
}
100
AcDbRasterVariables
 90
        0
 70
               1
 71
               1
 72
               0
  0
DICTIONARY
  5
A0
102
{ACAD_REACTORS
330
19
102
}
100
AcDbDictionary
280
               0
281
               1
  3
Bitmap3381072573
350
A2
  0
IMAGEDEF
  5
A2
102
{ACAD_REACTORS
330
A0
330
A1
102
}
100
AcDbRasterImageDef
 90
        0
  1
Bitmap3381072573.jpg
 10
1000.0
 20
1000.0
 11
0.24
 21
0.224
280
               1
281
               0
  0
IMAGEDEF_REACTOR
  5
A1
100
AcDbRasterImageDefReactor
 90
        2
330
9E
  0
ENDSEC
  0
EOF
